#!OML:ASF H:\Terrain\Patient Classification 1\Walking\liu\liu.ASF
:FULLY-SPECIFIED
:DEGREES
437
root 10.566300 17.222601 25.774099 6.865140 -2.160400 2.423950
lowerback -7.455558 2.258652 -3.897421
upperback -3.024857 3.246353 0.264979
thorax 0.841343 1.649494 2.689104
lowerneck -19.889431 -6.160264 -15.746610
upperneck 24.567730 -7.687350 14.053270
head 12.333090 -3.228093 6.667507
rclavicle -0.000000 -0.000000
rhumerus -48.764320 10.505627 -99.005501
rradius 32.412930
rwrist -13.555301
rhand -30.326559 -29.503099
rfingers 7.837522
rthumb -1.067252 -62.478462
lclavicle -0.000000 -0.000000
lhumerus -44.903099 -3.609925 97.674606
lradius 20.980192
lwrist -6.046975
lhand -13.125971 -27.177811
lfingers 7.837522
lthumb 15.533980 5.272300
rfemur -1.996896 -2.095489 17.047800
rtibia 60.538834
rfoot 15.170650 -2.424136
rtoes -11.900790
lfemur -33.820488 4.814777 -31.212942
ltibia 34.591152
lfoot -8.523625 6.992139
ltoes 4.906143
438
root 10.553300 17.239599 25.802401 7.614060 -1.877160 0.611635
lowerback -7.132367 2.200000 -2.125750
upperback -3.367848 3.041654 0.943746
thorax 0.376256 1.549328 2.360468
lowerneck -20.043430 -6.168503 -16.099930
upperneck 24.402729 -7.609492 14.258310
head 12.312410 -3.194268 6.814236
rclavicle -0.000000 0.000000
rhumerus -48.651020 10.481933 -98.706306
rradius 32.548012
rwrist -13.059200
rhand -33.358162 -25.904781
rfingers 7.837522
rthumb -3.995101 -58.848461
lclavicle -0.000000 0.000000
lhumerus -43.662743 -4.382488 98.184021
lradius 20.895489
lwrist -5.672557
lhand -12.809391 -26.482611
lfingers 7.837522
lthumb 15.839121 5.945962
rfemur -5.326002 -1.578973 20.066200
rtibia 62.796471
rfoot 13.466640 -5.233107
rtoes -10.094139
lfemur -34.717979 4.694789 -28.871700
ltibia 34.201420
lfoot -7.955607 6.955982
ltoes 2.054888
439
root 10.543300 17.254299 25.847000 7.930480 -1.789890 -0.631935
lowerback -5.348134 1.955096 -1.076954
upperback -4.905010 2.656610 1.427635
thorax -2.156924 1.382106 2.149367
lowerneck -18.391670 -5.693083 -16.026670
upperneck 25.128071 -7.234854 14.180760
head 12.185801 -3.086776 6.868642
rclavicle 0.000000 0.000000
rhumerus -51.199497 11.021339 -99.528336
rradius 33.060612
rwrist -13.242460
rhand -39.915592 -18.005131
rfingers 7.837522
rthumb -10.325282 -50.753231
lclavicle 0.000000 0.000000
lhumerus -44.942921 -4.620077 98.322517
lradius 20.951811
lwrist -5.566627
lhand -14.718881 -27.729570
lfingers 7.837522
lthumb 13.998711 4.821850
rfemur -8.173132 -1.096878 22.111429
rtibia 65.054108
rfoot 11.514690 -7.156303
rtoes -10.685213
lfemur -35.168102 4.702478 -27.238312
ltibia 34.221992
lfoot -7.824135 7.030353
ltoes 0.361019
440
root 10.573900 17.286100 26.012100 7.490870 -1.571200 0.725360
lowerback -6.602332 1.546688 -2.394744
upperback -3.283434 2.176482 1.115301
thorax 0.197221 1.121857 2.619166
lowerneck -21.066099 -6.047459 -15.599100
upperneck 25.338060 -7.412537 13.817870
head 12.793880 -3.085973 6.625839
rclavicle 0.000000 0.000000
rhumerus -49.070454 12.102421 -99.627884
rradius 33.380268
rwrist -14.360060
rhand -38.327850 -24.129381
rfingers 7.837522
rthumb -8.793125 -56.941059
lclavicle 0.000000 0.000000
lhumerus -41.406754 -4.926526 98.362335
lradius 20.683411
lwrist -5.452810
lhand -14.606021 -27.264381
lfingers 7.837522
lthumb 14.107500 5.280231
rfemur -8.809746 -1.966888 20.200289
rtibia 66.595871
rfoot 9.658122 -7.171714
rtoes -11.038171
lfemur -33.461121 4.626611 -29.049902
ltibia 33.658348
lfoot -8.409214 6.796020
ltoes -1.272568
441
root 10.582500 17.307501 26.087400 7.895750 -1.231660 -0.056689
lowerback -5.791302 1.344453 -1.504052
upperback -4.247903 1.855678 1.388651
thorax -1.209593 0.976579 2.346542
lowerneck -19.733669 -5.305938 -14.623620
upperneck 25.562130 -6.597448 12.902121
head 12.411410 -2.777698 6.242093
rclavicle -0.000000 0.000000
rhumerus -50.721771 12.482691 -100.077339
rradius 33.921581
rwrist -14.808090
rhand -36.577423 -27.116430
rfingers 7.837522
rthumb -7.103470 -59.986080
lclavicle -0.000000 0.000000
lhumerus -41.886349 -5.167173 98.347260
lradius 21.111092
lwrist -5.962066
lhand -13.127730 -26.032600
lfingers 7.837522
lthumb 15.532331 6.417587
rfemur -11.100870 -2.122769 21.505770
rtibia 67.820282
rfoot 8.681772 -8.673446
rtoes -8.778649
lfemur -33.287212 4.631825 -28.153950
ltibia 32.678802
lfoot -7.958610 6.487052
ltoes -2.455783
442
root 10.659800 17.366800 26.386400 6.872620 -1.085190 2.310380
lowerback -6.763262 0.876754 -3.409593
upperback -3.920092 1.338260 0.668638
thorax -0.335923 0.726854 2.677004
lowerneck -18.574600 -4.978930 -14.804130
upperneck 25.302752 -6.357637 13.451790
head 12.072060 -2.655279 6.514134
rclavicle 0.000000 0.000000
rhumerus -51.853672 12.719081 -100.186241
rradius 34.183380
rwrist -14.360940
rhand -35.372261 -28.269341
rfingers 7.837522
rthumb -5.939879 -61.171661
lclavicle 0.000000 0.000000
lhumerus -42.024731 -5.248980 98.347260
lradius 21.494001
lwrist -6.148219
lhand -12.464430 -25.653761
lfingers 7.837522
lthumb 16.171431 6.750920
rfemur -9.380239 -3.587815 17.486151
rtibia 67.960754
rfoot 6.891082 -7.435362
rtoes -8.203712
lfemur -29.416861 4.981999 -31.475071
ltibia 31.152771
lfoot -9.273067 5.800069
ltoes -2.172500
443
root 10.691100 17.392300 26.555700 6.266290 -0.993455 3.418130
lowerback -6.930264 0.656491 -4.414102
upperback -3.134087 1.120009 0.406610
thorax 0.565928 0.598238 2.970000
lowerneck -19.636429 -4.997432 -14.693800
upperneck 25.458071 -6.205980 13.146760
head 12.302840 -2.580413 6.406939
rclavicle -0.000000 -0.000000
rhumerus -50.942543 12.556061 -99.637558
rradius 34.415920
rwrist -13.416481
rhand -34.932922 -30.757650
rfingers 7.837522
rthumb -5.515741 -63.670418
lclavicle -0.000000 -0.000000
lhumerus -40.102921 -6.513518 98.880981
lradius 21.648001
lwrist -5.233734
lhand -12.599180 -25.530121
lfingers 7.837522
lthumb 16.041630 6.883877
rfemur -9.541851 -4.028420 15.823501
rtibia 68.475220
rfoot 5.497547 -7.033917
rtoes -10.577160
lfemur -27.287262 5.073310 -32.884502
ltibia 30.133400
lfoot -9.756372 5.521681
ltoes 0.701589
444
root 10.704100 17.429399 26.701000 6.040420 -0.755831 3.102700
lowerback -7.085232 0.602438 -3.947834
upperback -2.570480 1.035235 0.551508
thorax 1.246289 0.531495 2.859868
lowerneck -21.251450 -5.483940 -15.156131
upperneck 25.923151 -6.649874 13.390961
head 12.894640 -2.751474 6.534132
rclavicle -0.000000 0.000000
rhumerus -49.983780 12.247400 -99.151581
rradius 34.511509
rwrist -13.293831
rhand -35.675308 -31.500700
rfingers 7.837522
rthumb -6.232567 -64.395432
lclavicle -0.000000 0.000000
lhumerus -38.112030 -7.715202 99.248276
lradius 21.555931
lwrist -5.207059
lhand -12.787390 -25.529350
lfingers 7.837522
lthumb 15.860351 6.897748
rfemur -10.417474 -3.933017 16.385710
rtibia 68.714798
rfoot 4.066359 -7.442677
rtoes -13.386120
lfemur -26.081770 5.037351 -32.452862
ltibia 29.381111
lfoot -9.989035 5.341941
ltoes 2.836658
445
root 10.710700 17.426500 26.813299 6.000270 -0.458248 2.163550
lowerback -6.637774 0.419862 -2.866567
upperback -3.700620 0.700011 0.904592
thorax -0.132887 0.395907 2.579445
lowerneck -17.678320 -4.794911 -15.050091
upperneck 25.647600 -6.041354 12.967021
head 11.967010 -2.617593 6.432481
rclavicle -0.000000 0.000000
rhumerus -52.394321 11.923010 -99.260704
rradius 34.932259
rwrist -13.100340
rhand -34.413170 -30.524561
rfingers 7.837522
rthumb -5.013844 -63.448662
lclavicle -0.000000 0.000000
lhumerus -39.439732 -7.834299 99.348488
lradius 21.663950
lwrist -6.203648
lhand -12.502821 -25.798080
lfingers 7.837522
lthumb 16.134470 6.609229
rfemur -11.796620 -3.586231 17.844971
rtibia 69.365562
rfoot 1.986611 -8.098838
rtoes -13.476430
lfemur -25.377550 5.275270 -31.418970
ltibia 29.246471
lfoot -10.393504 5.258385
ltoes 0.441738
446
root 10.724800 17.463499 26.915701 6.138830 -0.162077 1.438650
lowerback -6.741174 0.133153 -2.094444
upperback -3.539932 0.278952 1.267651
thorax 0.118601 0.173470 2.496065
lowerneck -18.198730 -4.384534 -13.875620
upperneck 25.869471 -5.374127 11.631510
head 11.980210 -2.345508 5.824324
rclavicle 0.000000 0.000000
rhumerus -52.107109 11.850300 -98.689362
rradius 35.495022
rwrist -12.709290
rhand -36.973534 -30.456251
rfingers 7.837522
rthumb -7.485841 -63.313911
lclavicle 0.000000 0.000000
lhumerus -37.846489 -8.027096 99.234528
lradius 21.599821
lwrist -6.638863
lhand -12.047530 -25.955931
lfingers 7.837522
lthumb 16.573040 6.418951
rfemur -13.203630 -3.432759 18.968731
rtibia 69.834053
rfoot -0.010786 -8.274948
rtoes -11.858880
lfemur -25.397350 4.891942 -30.429741
ltibia 29.429180
lfoot -10.836716 5.172717
ltoes 2.703371
